<?xml version="1.0" encoding="UTF-8" standalone="no"?>
<svg width="40px" height="40px" viewBox="0 0 40 40" version="1.1" xmlns="http://www.w3.org/2000/svg" xmlns:xlink="http://www.w3.org/1999/xlink">
    <!-- Generator: Sketch 3.8.3 (29802) - http://www.bohemiancoding.com/sketch -->
    <title>account-icon--white</title>
    <desc>Created with Sketch.</desc>
    <defs></defs>
    <g id="Symbols" stroke="none" stroke-width="1" fill="none" fill-rule="evenodd">
        <g id="account-icon--white" fill="#FFFFFF">
            <path d="M33.8014297,34.6238537 L36,34.6238537 C34.3420934,29.2640858 29.9668797,25.0652823 24.4490247,23.5734719 C26.7984396,21.793165 28.3595013,18.6445583 28.3595013,15.0572957 C28.3595013,9.50280465 24.6168251,5 20,5 C15.3831749,5 11.6404987,9.50280465 11.6404987,15.0572957 C11.6404987,18.6445583 13.2015604,21.793165 15.5509753,23.5734719 C10.0331203,25.0652823 5.65790662,29.2640858 4,34.6238537 L6.19857029,34.6238537 C8.20305196,29.077188 13.6253813,25.1019008 20,25.1019008 C26.3746187,25.1019008 31.796948,29.077188 33.8014297,34.6238537 Z M20,22.9972659 C23.4626188,22.9972659 26.269626,19.4424202 26.269626,15.0572957 C26.269626,10.6721712 23.4626188,7.11732541 20,7.11732541 C16.5373812,7.11732541 13.730374,10.6721712 13.730374,15.0572957 C13.730374,19.4424202 16.5373812,22.9972659 20,22.9972659 Z" id="Combined-Shape"></path>
        </g>
    </g>
</svg>