<?xml version="1.0" encoding="UTF-8" standalone="no"?>
<svg width="40px" height="40px" viewBox="0 0 40 40" version="1.1" xmlns="http://www.w3.org/2000/svg" xmlns:xlink="http://www.w3.org/1999/xlink">
    <!-- Generator: Sketch 3.8.3 (29802) - http://www.bohemiancoding.com/sketch -->
    <title>Account Icon</title>
    <desc>Created with Sketch.</desc>
    <defs></defs>
    <g id="Symbols" stroke="none" stroke-width="1" fill="none" fill-rule="evenodd">
        <g id="Account-Icon" fill="#55D4AF">
            <path d="M33.2078977,33.9823344 L35.3119182,33.9823344 C33.7253101,28.9195623 29.538253,24.9534233 24.2576939,23.5442772 C26.5060719,21.8626208 28,18.888485 28,15.5 C28,10.2532949 24.418278,6 20,6 C15.581722,6 12,10.2532949 12,15.5 C12,18.888485 13.4939281,21.8626208 15.7423061,23.5442772 C10.461747,24.9534233 6.27468992,28.9195623 4.68808175,33.9823344 L6.79210229,33.9823344 C8.710381,28.743021 13.8995225,24.9880126 20,24.9880126 C26.1004775,24.9880126 31.289619,28.743021 33.2078977,33.9823344 Z M20,23 C23.3137085,23 26,19.6421356 26,15.5 C26,11.3578644 23.3137085,8 20,8 C16.6862915,8 14,11.3578644 14,15.5 C14,19.6421356 16.6862915,23 20,23 Z" id="Combined-Shape"></path>
        </g>
    </g>
</svg>