<?xml version="1.0" encoding="UTF-8" standalone="no"?>
<svg width="40px" height="40px" viewBox="0 0 40 40" version="1.1" xmlns="http://www.w3.org/2000/svg" xmlns:xlink="http://www.w3.org/1999/xlink">
    <!-- Generator: Sketch 3.8.3 (29802) - http://www.bohemiancoding.com/sketch -->
    <title>shopping icon - brand copy 2</title>
    <desc>Created with Sketch.</desc>
    <defs></defs>
    <g id="Symbols" stroke="none" stroke-width="1" fill="none" fill-rule="evenodd">
        <g id="shopping-icon---brand-copy-2" fill="#55D4AF">
            <path d="M28.8238066,15.3758459 C28.5957102,10.1521638 24.9567208,6 20.5010663,6 C16.0454118,6 12.4064225,10.1521638 12.178326,15.3758459 L10.9969731,15.3758459 C10.1726011,15.3758459 9.44435771,16.043939 9.37298694,16.8680737 L8.0019176,32.700125 C7.93068507,33.5226633 8.54620582,34.1923527 9.37703045,34.1923527 L31.6259971,34.1923527 C32.4547571,34.1923527 33.0724807,33.5242596 33.00111,32.700125 L31.6300412,16.8680737 C31.5588087,16.0455353 30.8315872,15.3758459 30.0060551,15.3758459 L28.8238066,15.3758459 Z M14.2641722,15.3758459 C14.4786024,11.3035869 17.1889997,8.08352131 20.5010663,8.08352131 C23.8131329,8.08352131 26.5235302,11.3035869 26.7379605,15.3758459 L14.2641722,15.3758459 Z M11.1952367,18.9516404 C11.271979,18.1274807 12.0084445,17.4593672 12.8345242,17.4593672 L28.1676765,17.4593672 C28.9962878,17.4593672 29.7298919,18.1239377 29.806964,18.9516404 L30.8871159,30.5517432 C30.9638581,31.3759029 30.3495418,32.0440164 29.5290852,32.0440164 L11.4731149,32.0440164 C10.6463531,32.0440164 10.0380122,31.3794458 10.1150843,30.5517432 L11.1952367,18.9516404 Z" id="Combined-Shape"></path>
        </g>
    </g>
</svg>