<?xml version="1.0" encoding="UTF-8" standalone="no"?>
<svg width="40px" height="40px" viewBox="0 0 40 40" version="1.1" xmlns="http://www.w3.org/2000/svg" xmlns:xlink="http://www.w3.org/1999/xlink">
    <title>shopping-icon--white</title>
    <desc>Created with Sketch.</desc>
    <defs></defs>
    <g id="Symbols" stroke="none" stroke-width="1" fill="none" fill-rule="evenodd">
        <g id="shopping-icon--white" fill="#FFFFFF">
            <path d="M29.1299244,14.9589918 C28.8876411,9.41041437 25.0223189,5 20.2895378,5 C15.5567566,5 11.6914344,9.41041437 11.4491512,14.9589918 L10.1038422,14.9589918 C9.28071919,14.9589918 8.54834882,15.6315768 8.47649819,16.4612525 L7.00581558,33.443561 C6.93330787,34.2808241 7.54725058,34.9458217 8.37562738,34.9458217 L32.2043987,34.9458217 C33.0411253,34.9458217 33.6460612,34.2732367 33.5742106,33.443561 L32.1035286,16.4612525 C32.0310209,15.6239894 31.3030913,14.9589918 30.4761846,14.9589918 L29.1299244,14.9589918 Z M13.6647299,14.9589918 C13.892497,10.6334521 16.7714718,7.21310929 20.2895378,7.21310929 C23.8076037,7.21310929 26.6865786,10.6334521 26.9143456,14.9589918 L13.6647299,14.9589918 Z M10.4141981,18.6575166 C10.4905877,17.8371443 11.222857,17.1721011 12.0482794,17.1721011 L28.5308685,17.1721011 C29.3569571,17.1721011 30.0886178,17.8377629 30.1649498,18.6575166 L31.3308455,31.1784505 C31.4072351,31.9988229 30.7999954,32.6638661 29.9673937,32.6638661 L10.6117536,32.6638661 C9.78235036,32.6638661 9.17196982,31.9982043 9.24830181,31.1784505 L10.4141981,18.6575166 Z" id="Combined-Shape"></path>
        </g>
    </g>
</svg>