<?xml version="1.0" encoding="UTF-8" standalone="no"?>
<svg width="22px" height="22px" viewBox="0 0 22 22" version="1.1" xmlns="http://www.w3.org/2000/svg" xmlns:xlink="http://www.w3.org/1999/xlink">
    <!-- Generator: Sketch 3.8.3 (29802) - http://www.bohemiancoding.com/sketch -->
    <title>close-icon--dark</title>
    <desc>Created with Sketch.</desc>
    <defs></defs>
    <g id="Symbols" stroke="none" stroke-width="1" fill="none" fill-rule="evenodd">
        <g id="close-icon--dark" fill="#373636">
            <g id="x">
                <path d="M10.9999797,8.88770184 L2.5556522,0.443374307 C1.96443047,-0.147847427 1.02069168,-0.145792676 0.437343957,0.437555051 C-0.150070763,1.02496977 -0.143398399,1.96930168 0.443163214,2.5558633 L8.88749074,11.0001908 L0.443382816,19.4442988 C-0.147850264,20.0355318 -0.145795474,20.9792887 0.437563448,21.5626476 C1.02498944,22.1500736 1.96933948,22.1434012 2.55591235,21.5568283 L11.0000203,13.1127204 L19.4439256,21.5566257 C20.0351473,22.1478474 20.9788861,22.1457927 21.5622339,21.5624449 C22.1496486,20.9750302 22.1429762,20.0306983 21.5564146,19.4441367 L13.1125093,11.0002314 L21.5570394,2.55570125 C22.1482725,1.96446817 22.1462177,1.02071127 21.5628587,0.43735235 C20.9754328,-0.150073642 20.0310827,-0.143401151 19.4445098,0.443171718 L10.9999797,8.88770184 Z" id="Combined-Shape"></path>
            </g>
        </g>
    </g>
</svg>