<?xml version="1.0" encoding="UTF-8" standalone="no"?>
<svg width="40px" height="40px" viewBox="0 0 40 40" version="1.1" xmlns="http://www.w3.org/2000/svg" xmlns:xlink="http://www.w3.org/1999/xlink">
    <!-- Generator: Sketch 3.8.3 (29802) - http://www.bohemiancoding.com/sketch -->
    <title>close icon</title>
    <desc>Created with Sketch.</desc>
    <defs></defs>
    <g id="Symbols" stroke="none" stroke-width="1" fill="none" fill-rule="evenodd">
        <g id="close-icon" fill="#55D4AF">
            <path d="M22.6213203,20 L31.1007581,11.5205622 C31.6944515,10.9268688 31.6923882,9.97918472 31.1066017,9.39339828 C30.5167313,8.80352785 29.5684516,8.81022811 28.9794378,9.39924187 L20.5,17.8786797 L12.0205622,9.39924187 C11.4268688,8.8055485 10.4791847,8.80761184 9.89339828,9.39339828 C9.30352785,9.98326872 9.31022811,10.9315484 9.89924187,11.5205622 L18.3786797,20 L9.89924187,28.4794378 C9.3055485,29.0731312 9.30761184,30.0208153 9.89339828,30.6066017 C10.4832687,31.1964722 11.4315484,31.1897719 12.0205622,30.6007581 L20.5,22.1213203 L28.9794378,30.6007581 C29.5731312,31.1944515 30.5208153,31.1923882 31.1066017,30.6066017 C31.6964722,30.0167313 31.6897719,29.0684516 31.1007581,28.4794378 L22.6213203,20 Z" id="Combined-Shape"></path>
        </g>
    </g>
</svg>