<?xml version="1.0" encoding="UTF-8" standalone="no"?>
<svg width="22px" height="22px" viewBox="0 0 22 22" version="1.1" xmlns="http://www.w3.org/2000/svg" xmlns:xlink="http://www.w3.org/1999/xlink">
    <!-- Generator: Sketch 3.8.3 (29802) - http://www.bohemiancoding.com/sketch -->
    <title>close-icon--brand</title>
    <desc>Created with Sketch.</desc>
    <defs></defs>
    <g id="Symbols" stroke="none" stroke-width="1" fill="none" fill-rule="evenodd">
        <g id="close-icon--brand" fill="#55D4AF">
            <g id="x">
                <path d="M10.9998092,8.88749074 L2.55570125,0.443382816 C1.96446817,-0.147850264 1.02071127,-0.145795474 0.43735235,0.437563448 C-0.150073642,1.02498944 -0.143401151,1.96933948 0.443171718,2.55591235 L8.88727964,11.0000203 L0.443374307,19.4439256 C-0.147847427,20.0351473 -0.145792676,20.9788861 0.437555051,21.5622339 C1.02496977,22.1496486 1.96930168,22.1429762 2.5558633,21.5564146 L10.9997686,13.1125093 L19.4442988,21.5570394 C20.0355318,22.1482725 20.9792887,22.1462177 21.5626476,21.5628587 C22.1500736,20.9754328 22.1434012,20.0310827 21.5568283,19.4445098 L13.1122982,10.9999797 L21.5566257,2.5556522 C22.1478474,1.96443047 22.1457927,1.02069168 21.5624449,0.437343957 C20.9750302,-0.150070763 20.0306983,-0.143398399 19.4441367,0.443163214 L10.9998092,8.88749074 Z" id="Combined-Shape"></path>
            </g>
        </g>
    </g>
</svg>