<?xml version="1.0" encoding="UTF-8" standalone="no"?>
<svg width="20px" height="17px" viewBox="0 0 20 17" version="1.1" xmlns="http://www.w3.org/2000/svg" xmlns:xlink="http://www.w3.org/1999/xlink">
    <!-- Generator: Sketch 3.8.3 (29802) - http://www.bohemiancoding.com/sketch -->
    <title>email-icon--white</title>
    <desc>Created with Sketch.</desc>
    <defs></defs>
    <g id="Desktop" stroke="none" stroke-width="1" fill="none" fill-rule="evenodd">
        <g id="Product" transform="translate(-986.000000, -1330.000000)" fill="#000000">
            <g id="envelope5" transform="translate(986.000000, 1331.000000)">
                <path d="M19.4754795,0.167520548 C19.1257534,-0.182205479 18.7053425,-0.357 18.2143836,-0.357 L1.78575342,-0.357 C1.29465753,-0.357 0.874246575,-0.182205479 0.524520548,0.167520548 C0.174794521,0.517246575 0,0.937657534 0,1.42875342 L0,13.5717671 C0,14.062863 0.174794521,14.483 0.524520548,14.832726 C0.874246575,15.182726 1.29465753,15.3573836 1.78575342,15.3573836 L18.2143836,15.3573836 C18.7053425,15.3573836 19.1257534,15.182726 19.4754795,14.832726 C19.8253425,14.483 20,14.062726 20,13.5717671 L20,1.42875342 C20,0.937657534 19.8253425,0.517246575 19.4754795,0.167520548 L19.4754795,0.167520548 Z M18.5712329,13.5714932 C18.5712329,13.6682055 18.5358904,13.7519041 18.4652055,13.822589 C18.3945205,13.893274 18.3108219,13.9284795 18.2142466,13.9284795 L1.78561644,13.9284795 C1.68890411,13.9284795 1.60520548,13.893274 1.53452055,13.822589 C1.46383562,13.7519041 1.42849315,13.6682055 1.42849315,13.5714932 L1.42849315,5.00012329 C1.66657534,5.26793151 1.92328767,5.51354795 2.19863014,5.73669863 C4.19273973,7.26943836 5.77753425,8.52683562 6.95315068,9.5090274 C7.33260274,9.8290274 7.64136986,10.0782055 7.87945205,10.2568356 C8.11753425,10.4354658 8.43931507,10.6157397 8.84479452,10.7980685 C9.25027397,10.9803973 9.63164384,11.0713562 9.98876712,11.0713562 L10,11.0713562 L10.0110959,11.0713562 C10.3680822,11.0713562 10.749726,10.9803973 11.1550685,10.7980685 C11.5606849,10.6157397 11.8826027,10.4354658 12.1206849,10.2568356 C12.3586301,10.0782055 12.6675342,9.8290274 13.0469863,9.5090274 C14.2226027,8.52683562 15.8072603,7.26943836 17.8013699,5.73669863 C18.0767123,5.51354795 18.3335616,5.26793151 18.5713699,5.00012329 L18.5713699,13.5714932 L18.5712329,13.5714932 Z M18.5712329,1.71889041 L18.5712329,1.84163014 C18.5712329,2.28053425 18.3983562,2.76984932 18.0524658,3.30916438 C17.7065753,3.84861644 17.3324658,4.27834247 16.9308219,4.59820548 C15.4946575,5.72930137 14.0030137,6.90847945 12.4552055,8.13615068 C12.4105479,8.17327397 12.280274,8.28313699 12.0645205,8.46532877 C11.8489041,8.64765753 11.6776712,8.78738356 11.5510959,8.8839589 C11.4245205,8.98080822 11.2591781,9.09793151 11.0545205,9.23546575 C10.849863,9.373 10.6620548,9.47546575 10.4909589,9.54231507 C10.319863,9.60916438 10.159863,9.64258904 10.0110959,9.64258904 L10,9.64258904 L9.98876712,9.64258904 C9.84,9.64258904 9.68013699,9.60916438 9.50890411,9.54231507 C9.33780822,9.47546575 9.14986301,9.373 8.94534247,9.23546575 C8.74082192,9.09793151 8.57520548,8.98080822 8.44876712,8.8839589 C8.32232877,8.78738356 8.15109589,8.64765753 7.93534247,8.46532877 C7.71958904,8.28313699 7.58931507,8.17327397 7.54465753,8.13615068 C5.99712329,6.90847945 4.50534247,5.72930137 3.06931507,4.59820548 C1.97547945,3.73519178 1.42863014,2.67861644 1.42863014,1.42861644 C1.42863014,1.33190411 1.4639726,1.24820548 1.53465753,1.17752055 C1.60534247,1.10683562 1.6890411,1.07149315 1.78575342,1.07149315 L18.2143836,1.07149315 C18.2738356,1.10491781 18.3258904,1.11423288 18.3706849,1.09943836 C18.4153425,1.08436986 18.4487671,1.11231507 18.4709589,1.183 C18.4932877,1.25368493 18.5136986,1.28710959 18.5323288,1.28341096 C18.5509589,1.27971233 18.5621918,1.32615068 18.5658904,1.423 C18.5693151,1.51971233 18.5712329,1.56834247 18.5712329,1.56834247 L18.5712329,1.71889041 L18.5712329,1.71889041 Z" id="Shape" fill="#FFFFFF"></path>
            </g>
        </g>
    </g>
</svg>