<?xml version="1.0" encoding="UTF-8" standalone="no"?>
<svg width="40px" height="40px" viewBox="0 0 40 40" version="1.1" xmlns="http://www.w3.org/2000/svg" xmlns:xlink="http://www.w3.org/1999/xlink">
    <!-- Generator: Sketch 3.8.3 (29802) - http://www.bohemiancoding.com/sketch -->
    <title>facebook-color</title>
    <desc>Created with Sketch.</desc>
    <defs></defs>
    <g id="Desktop" stroke="none" stroke-width="1" fill="none" fill-rule="evenodd">
        <g id="Home" transform="translate(-670.000000, -2695.000000)" fill="#4460A0">
            <g id="Footer" transform="translate(242.000000, 2695.000000)">
                <g id="Social">
                    <path d="M449.365296,40 L430.207693,40 C428.988061,40 428,39.0113263 428,37.792169 L428,2.2076758 C428,0.988208087 428.988216,0 430.207693,0 L465.792462,0 C467.011629,0 468,0.988208087 468,2.2076758 L468,37.792169 C468,39.0114815 467.011474,40 465.792462,40 L455.599421,40 L455.599421,24.5097956 L460.798768,24.5097956 L461.577296,18.472988 L455.599421,18.472988 L455.599421,14.6188678 C455.599421,12.8710728 456.08476,11.6800081 458.591075,11.6800081 L461.787759,11.6786112 L461.787759,6.27924212 C461.234905,6.20567362 459.33732,6.04130856 457.129627,6.04130856 C452.520695,6.04130856 449.365296,8.85460521 449.365296,14.0210074 L449.365296,18.472988 L444.152601,18.472988 L444.152601,24.5097956 L449.365296,24.5097956 L449.365296,40 L449.365296,40 Z" id="facebook"></path>
                </g>
            </g>
        </g>
    </g>
</svg>