<?xml version="1.0" encoding="UTF-8" standalone="no"?>
<svg width="40px" height="40px" viewBox="0 0 40 40" version="1.1" xmlns="http://www.w3.org/2000/svg" xmlns:xlink="http://www.w3.org/1999/xlink">
    <!-- Generator: Sketch 3.8.3 (29802) - http://www.bohemiancoding.com/sketch -->
    <title>logomark copy</title>
    <desc>Created with Sketch.</desc>
    <defs></defs>
    <g id="Symbols" stroke="none" stroke-width="1" fill="none" fill-rule="evenodd">
        <g id="logomark-copy" fill="#FFFFFF">
            <g id="Layer_1">
                <g id="Group">
                    <path d="M0,20 C0,8.46366227 8.93431288,0 20,0 C31.0665514,0 40,8.46366227 40,20 C40,31.4784467 31.1235955,40 20,40 C8.87640449,40.0008906 0,31.4793374 0,20 L0,20 Z M4,20 C4,28.9018994 11.143869,36 20,36 C28.8552457,36 36,28.9018994 36,20 C36,11.0981006 28.856131,4 20,4 C11.143869,4.00089385 4,11.0989944 4,20 L4,20 Z" id="Shape"></path>
                    <g transform="translate(12.000000, 11.000000)" id="Shape">
                        <g transform="translate(0.000000, 1.678751)">
                            <path d="M0.290420135,0.149512588 C0.355879912,3.64008602 3.53021809,6.52676997 7.64035448,6.88541579 C7.5748947,3.39576432 4.4014785,0.508158406 0.290420135,0.149512588 L0.290420135,0.149512588 Z"></path>
                            <path d="M7.75836647,7.0117255 L7.63021283,7.00066188 C3.44631894,6.63464031 0.240633826,3.68987233 0.174252081,0.150434557 L0.171486175,0.0222809099 L0.299639822,0.0333445341 C4.48353371,0.399366101 7.68921882,3.34413408 7.75560057,6.88357185 L7.75836647,7.0117255 L7.75836647,7.0117255 Z M0.409354096,0.275822298 C0.546727429,3.60228531 3.57078471,6.35989364 7.52234249,6.75818411 C7.38404719,3.4317211 4.36091187,0.675034738 0.409354096,0.275822298 L0.409354096,0.275822298 Z"></path>
                        </g>
                        <g transform="translate(0.000000, 9.219687)">
                            <path d="M0.0875870249,6.92490678 L0.102338524,6.7949092 C0.506160807,2.99455428 3.74595876,0.0838991502 7.63943251,0.0230492171 L7.77035207,0.0212052797 L7.75560057,0.150280895 C7.35270025,3.95155778 4.1129023,6.86221291 0.218506578,6.92306285 L0.0875870249,6.92490678 L0.0875870249,6.92490678 Z"></path>
                        </g>
                        <g transform="translate(8.297718, 9.219687)">
                            <path d="M7.53340611,6.87512047 C7.46794634,3.38454704 4.29360816,0.497863089 0.183471768,0.139217271 C0.248931545,3.62794677 3.42326972,6.51555269 7.53340611,6.87512047 L7.53340611,6.87512047 Z"></path>
                            <path d="M7.65141811,7.00050821 L7.52326446,6.98944459 C3.34029254,6.62434499 0.134607428,3.68049899 0.0673037139,0.14013924 L0.0645378079,0.0119855929 L0.192691455,0.0230492171 C4.37658534,0.388148816 7.58227045,3.33291679 7.6486522,6.87235457 L7.65141811,7.00050821 L7.65141811,7.00050821 Z M0.30148376,0.265526981 C0.439779062,3.59291196 3.46383634,6.34959832 7.41447215,6.74696683 C7.27709882,3.42050382 4.25396351,0.663817452 0.30148376,0.265526981 L0.30148376,0.265526981 Z"></path>
                        </g>
                        <g transform="translate(8.297718, 1.678751)">
                            <path d="M7.60716361,0.216816302 C3.76071026,0.275822298 0.578074365,3.15605247 0.182549799,6.88541579 C4.02900315,6.82548783 7.21163904,3.94617963 7.60716361,0.216816302 L7.60716361,0.216816302 Z"></path>
                            <path d="M0.0543961523,7.00250581 L0.0691476513,6.8734302 C0.472047966,3.07215332 3.71184592,0.161498181 7.60624164,0.100648248 L7.73716119,0.0988043106 L7.72240969,0.228801895 C7.31858741,4.02823484 4.07878946,6.93888997 0.185315705,7.00066188 L0.0543961523,7.00250581 L0.0543961523,7.00250581 Z M7.47808799,0.334828294 C3.80404279,0.454684222 0.757858258,3.18924334 0.313469352,6.7674038 C3.98659259,6.6466259 7.03185515,3.91298875 7.47808799,0.334828294 L7.47808799,0.334828294 Z"></path>
                        </g>
                        <g transform="translate(6.288595, 13.829530)">
                            <path d="M1.80905622,3.98474865 C0.802266416,3.98474865 0.0139831917,3.19738739 0.0139831917,2.19059759 C0.0139831917,1.20132519 0.819783821,0.396446534 1.80905622,0.396446534 C2.79832862,0.396446534 3.60320728,1.20132519 3.60320728,2.19059759 C3.60320728,3.17986999 2.79925058,3.98474865 1.80905622,3.98474865 L1.80905622,3.98474865 Z"></path>
                        </g>
                        <g transform="translate(5.531812, 0.000000)">
                            <path d="M2.5289601,3.82063823 C1.5396877,3.82063823 0.733887072,3.01575956 0.733887072,2.02648717 C0.733887072,1.01969736 1.5221703,0.232336108 2.5289601,0.232336108 C3.5182325,0.232336108 4.32311116,1.03721477 4.32311116,2.02648717 C4.32311116,3.01575956 3.51915447,3.82063823 2.5289601,3.82063823 L2.5289601,3.82063823 Z"></path>
                        </g>
                    </g>
                </g>
            </g>
        </g>
    </g>
</svg>