<?xml version="1.0" encoding="UTF-8" standalone="no"?>
<svg width="40px" height="40px" viewBox="0 0 40 40" version="1.1" xmlns="http://www.w3.org/2000/svg" xmlns:xlink="http://www.w3.org/1999/xlink">
    <!-- Generator: Sketch 3.8.3 (29802) - http://www.bohemiancoding.com/sketch -->
    <title>pinterest-icon--color</title>
    <desc>Created with Sketch.</desc>
    <defs></defs>
    <g id="Desktop" stroke="none" stroke-width="1" fill="none" fill-rule="evenodd">
        <g id="Home" transform="translate(-895.000000, -2695.000000)" fill="#CC2127">
            <g id="Footer" transform="translate(242.000000, 2695.000000)">
                <g id="Social">
                    <path d="M673.001176,0 C661.956312,0 653,8.95396013 653,20.001176 C653,28.188393 657.925031,35.2254954 664.973893,38.3183395 C664.917446,36.9236197 664.964485,35.2443112 665.319633,33.7249368 C665.705357,32.1020756 667.892691,22.8282472 667.892691,22.8282472 C667.892691,22.8282472 667.255307,21.551126 667.255307,19.6624919 C667.255307,16.6990063 668.974599,14.4858 671.112542,14.4858 C672.930617,14.4858 673.810255,15.8522961 673.810255,17.4892691 C673.810255,19.3167519 672.643676,22.0520962 672.043923,24.5851708 C671.542953,26.7090022 673.107015,28.4377021 675.20027,28.4377021 C678.989299,28.4377021 681.541189,23.5714706 681.541189,17.8044335 C681.541189,13.4227083 678.589463,10.1417064 673.219909,10.1417064 C667.154172,10.1417064 663.374552,14.6645499 663.374552,19.7165873 C663.374552,21.461751 663.887282,22.6894808 664.691656,23.6396778 C665.063268,24.0794967 665.112659,24.2535427 664.978597,24.7568648 C664.884518,25.1214206 664.663433,26.0104663 664.571706,26.3609102 C664.437643,26.8665843 664.0284,27.0500382 663.572117,26.8618804 C660.775622,25.7211736 659.474981,22.6612571 659.474981,19.220321 C659.474981,13.5403069 664.265949,6.72429 673.767919,6.72429 C681.404775,6.72429 686.43094,12.2537779 686.43094,18.1831011 C686.43094,26.0292821 682.070383,31.8903981 675.637737,31.8903981 C673.480978,31.8903981 671.448874,30.7238196 670.75269,29.399659 C670.75269,29.399659 669.590816,34.0071735 669.34621,34.8962192 C668.922855,36.4367613 668.092609,37.9796554 667.332922,39.1791615 C669.132181,39.7107074 671.032575,40 673.001176,40 C684.04604,40 693,31.0460399 693,20.001176 C693,8.95396013 684.04604,0 673.001176,0" id="pinterest"></path>
                </g>
            </g>
        </g>
    </g>
</svg>