<?xml version="1.0" encoding="UTF-8" standalone="no"?>
<svg width="40px" height="40px" viewBox="0 0 40 40" version="1.1" xmlns="http://www.w3.org/2000/svg" xmlns:xlink="http://www.w3.org/1999/xlink">
    <!-- Generator: Sketch 3.8.3 (29802) - http://www.bohemiancoding.com/sketch -->
    <title>Plus Icon White</title>
    <desc>Icon shaped like a plus in white colour</desc>
    <defs></defs>
    <g id="Symbols" stroke="none" stroke-width="1" fill="none" fill-rule="evenodd">
        <g id="plus-icon--white" fill="#FFFFFF">
            <path d="M22,21.5 L33.4917359,21.5 C34.3313451,21.5 35,20.8284271 35,20 C35,19.1657972 34.3247272,18.5 33.4917359,18.5 L22,18.5 L22,6.50826408 C22,5.66865487 21.3284271,5 20.5,5 C19.6657972,5 19,5.67527283 19,6.50826408 L19,18.5 L6.50826408,18.5 C5.66865487,18.5 5,19.1715729 5,20 C5,20.8342028 5.67527283,21.5 6.50826408,21.5 L19,21.5 L19,33.4917359 C19,34.3313451 19.6715729,35 20.5,35 C21.3342028,35 22,34.3247272 22,33.4917359 L22,21.5 Z" id="Combined-Shape"></path>
        </g>
    </g>
</svg>