<?xml version="1.0" encoding="UTF-8" standalone="no"?>
<svg width="40px" height="40px" viewBox="0 0 40 40" version="1.1" xmlns="http://www.w3.org/2000/svg" xmlns:xlink="http://www.w3.org/1999/xlink">
    <!-- Generator: Sketch 3.8.3 (29802) - http://www.bohemiancoding.com/sketch -->
    <title>Search</title>
    <desc>Created with Sketch.</desc>
    <defs></defs>
    <g id="Symbols" stroke="none" stroke-width="1" fill="none" fill-rule="evenodd">
        <g id="Search" fill="#55D4AF">
            <path d="M23.1167759,26.662832 C21.1256393,28.1317754 18.664212,29 16,29 C9.372583,29 4,23.627417 4,17 C4,10.372583 9.372583,5 16,5 C22.627417,5 28,10.372583 28,17 C28,20.061945 26.8531957,22.8560395 24.9656742,24.9761964 L33.1824415,33.1929637 C33.6676314,33.6781536 33.6636376,34.4687959 33.1911164,34.941317 L34.0609556,34.0714778 C33.5805567,34.5518767 32.7934345,35.3389989 32.313357,35.8190765 L33.170073,34.9623605 C32.6857831,35.4466503 31.8928558,35.4389119 31.4146745,34.9607306 L23.1167759,26.662832 Z M16,27 C21.5228475,27 26,22.5228475 26,17 C26,11.4771525 21.5228475,7 16,7 C10.4771525,7 6,11.4771525 6,17 C6,22.5228475 10.4771525,27 16,27 Z" id="Combined-Shape"></path>
        </g>
    </g>
</svg>