<?xml version="1.0" encoding="UTF-8" standalone="no"?>
<svg width="31px" height="31px" viewBox="0 0 31 31" version="1.1" xmlns="http://www.w3.org/2000/svg" xmlns:xlink="http://www.w3.org/1999/xlink">
    <!-- Generator: Sketch 3.8.3 (29802) - http://www.bohemiancoding.com/sketch -->
    <title>Combined Shape</title>
    <desc>Created with Sketch.</desc>
    <defs></defs>
    <g id="Symbols" stroke="none" stroke-width="1" fill="none" fill-rule="evenodd">
        <g id="Search---base" transform="translate(-4.000000, -5.000000)" fill="#373636">
            <path d="M23.5825681,27.0512839 C21.5557269,28.546568 19.050162,29.4303614 16.3381761,29.4303614 C9.59191807,29.4303614 4.12299539,23.9614387 4.12299539,17.2151807 C4.12299539,10.4689227 9.59191807,5 16.3381761,5 C23.0844341,5 28.5533568,10.4689227 28.5533568,17.2151807 C28.5533568,20.3320316 27.3859883,23.176229 25.4646203,25.3344041 L33.8287284,33.6985121 C34.3226186,34.1924024 34.3185531,34.9972222 33.8375589,35.4782164 L34.7229958,34.5927795 C34.2339825,35.0817928 33.4327459,35.8830294 32.9440597,36.3717156 L33.8268478,35.4889275 C33.327959,35.9878163 32.5160182,35.9847341 32.0292623,35.4979782 L23.5825681,27.0512839 Z M16.3381761,27.3944979 C21.9600578,27.3944979 26.5174933,22.8370624 26.5174933,17.2151807 C26.5174933,11.593299 21.9600578,7.03586345 16.3381761,7.03586345 C10.7162944,7.03586345 6.15885883,11.593299 6.15885883,17.2151807 C6.15885883,22.8370624 10.7162944,27.3944979 16.3381761,27.3944979 Z" id="Combined-Shape"></path>
        </g>
    </g>
</svg>